<?xml version="1.0" standalone="no"?>
<!DOCTYPE svg PUBLIC "-//W3C//DTD SVG 20010904//EN"
 "http://www.w3.org/TR/2001/REC-SVG-20010904/DTD/svg10.dtd">
<svg version="1.0" xmlns="http://www.w3.org/2000/svg"
 width="384.000000pt" height="384.000000pt" viewBox="0 0 384.000000 384.000000"
 preserveAspectRatio="xMidYMid meet">
<metadata>
Created by potrace 1.11, written by Peter Selinger 2001-2013
</metadata>
<g transform="translate(0.000000,384.000000) scale(0.100000,-0.100000)"
fill="#000000" stroke="none">
<path d="M2676 3620 c-39 -12 -66 -39 -66 -66 0 -12 -5 -24 -10 -26 -6 -2 -11
-38 -12 -81 -1 -43 -7 -81 -12 -86 -17 -14 -62 -21 -183 -30 -87 -6 -117 -12
-133 -26 -36 -33 -25 -42 63 -48 154 -12 293 -9 307 8 7 8 21 15 31 15 25 0
33 17 36 75 3 85 17 171 26 158 5 -7 16 -13 26 -13 10 0 24 -6 30 -14 6 -7 35
-16 63 -19 44 -6 58 -3 85 16 53 36 44 61 -36 104 -13 7 -38 13 -55 13 -18 0
-36 4 -41 9 -15 15 -86 21 -119 11z"/>
<path d="M1112 3559 c-11 -4 -33 -28 -47 -54 -26 -43 -26 -47 -11 -70 9 -13
16 -31 16 -39 0 -8 15 -22 34 -31 43 -21 66 -8 91 47 9 22 23 42 30 44 20 8
55 -14 55 -34 0 -10 5 -23 11 -29 6 -6 14 -42 16 -80 7 -89 15 -103 59 -103
28 0 37 5 41 20 l6 21 19 -21 c28 -29 62 -25 93 12 l27 32 -24 18 c-24 18 -65
23 -84 10 -6 -4 -16 -16 -22 -27 -11 -20 -11 -20 -12 1 0 11 -6 26 -12 33 -9
8 -12 40 -11 98 2 89 -13 132 -47 133 -9 0 -25 7 -37 15 -23 16 -150 19 -191
4z"/>
<path d="M2833 3334 c-8 -18 -9 -32 -3 -45 12 -22 13 -86 1 -93 -5 -3 -11 -18
-14 -33 -10 -55 55 -107 91 -71 13 13 5 95 -11 116 -6 8 -6 16 1 25 6 7 14 39
18 70 l7 57 -39 0 c-32 0 -41 -5 -51 -26z"/>
<path d="M1705 3313 c-11 -3 -30 -14 -42 -25 -17 -16 -20 -25 -12 -39 16 -32
119 -20 160 17 18 16 18 18 3 36 -17 18 -62 22 -109 11z"/>
<path d="M2037 3294 c-31 -29 -28 -39 16 -57 22 -9 49 -11 91 -5 71 10 91 25
82 62 -6 25 -9 26 -84 26 -69 0 -80 -3 -105 -26z"/>
<path d="M1121 3284 c-12 -15 -21 -36 -21 -48 -1 -12 -17 -33 -40 -51 -21 -16
-39 -34 -40 -38 0 -5 -11 -23 -25 -41 -14 -18 -25 -36 -25 -40 0 -14 -89 -123
-140 -172 -27 -26 -60 -63 -73 -81 -12 -18 -27 -33 -33 -33 -13 0 -154 -152
-154 -166 0 -10 -36 -44 -46 -44 -21 0 -84 -79 -84 -105 0 -43 37 -52 230 -58
96 -4 190 -11 208 -18 18 -6 51 -8 75 -5 23 4 54 7 69 7 15 0 30 4 34 10 3 6
29 7 64 3 60 -7 190 12 190 28 0 8 -15 11 -24 6 -2 -2 -14 10 -26 25 -17 21
-28 27 -45 23 -14 -4 -28 0 -35 9 -16 20 -74 19 -91 -1 -9 -11 -21 -14 -43 -9
-17 4 -80 10 -141 15 -143 10 -217 20 -232 33 -10 7 -3 21 28 59 23 27 53 55
68 63 15 7 33 26 41 41 19 36 31 51 108 128 34 34 62 71 62 80 0 10 34 50 75
90 73 72 95 106 95 148 0 11 11 33 25 50 30 36 32 67 5 96 -27 28 -34 28 -59
-4z"/>
<path d="M1924 3296 c-12 -31 1 -51 33 -54 27 -3 33 1 39 22 3 14 3 30 -1 35
-9 16 -65 13 -71 -3z"/>
<path d="M2887 3056 c-7 -16 2 -56 15 -73 5 -6 13 -24 17 -40 5 -18 16 -29 32
-33 16 -4 28 -17 35 -40 13 -41 49 -64 76 -49 23 12 22 45 -2 84 -11 17 -31
54 -45 83 -15 28 -32 52 -40 52 -7 0 -15 7 -19 15 -7 19 -62 20 -69 1z"/>
<path d="M3037 2775 c-44 -33 31 -145 97 -145 69 0 75 50 13 115 -46 48 -77
56 -110 30z"/>
<path d="M3200 2565 c-7 -8 -18 -15 -26 -15 -7 0 -15 -9 -19 -19 -5 -17 -8
-18 -33 -5 -23 11 -51 12 -158 2 -71 -6 -225 -12 -342 -14 -219 -3 -242 -7
-242 -44 0 -19 36 -30 99 -30 20 0 42 -5 48 -11 8 -8 17 -8 31 0 26 14 122 14
122 1 0 -6 35 -10 83 -11 45 0 98 -6 117 -13 31 -11 35 -17 38 -54 3 -42 4
-42 42 -42 45 0 60 18 60 72 0 45 15 58 67 58 31 0 46 5 55 19 9 15 17 17 35
10 14 -5 46 -9 72 -9 75 0 92 34 45 89 -29 34 -73 42 -94 16z"/>
<path d="M1440 2500 c-51 -5 -55 -7 -58 -32 -3 -29 0 -31 83 -42 36 -5 208 8
263 20 25 5 30 35 8 53 -13 11 -182 12 -296 1z"/>
<path d="M2291 2497 c-16 -16 -14 -34 5 -41 21 -8 34 1 34 24 0 22 -23 33 -39
17z"/>
<path d="M1990 2309 c-36 -4 -110 -10 -165 -13 -55 -2 -118 -9 -140 -15 -26
-6 -43 -7 -51 0 -8 7 -14 6 -19 -1 -8 -13 -93 -13 -170 1 -110 19 -139 21
-288 20 -153 -2 -212 -13 -231 -43 -8 -13 -7 -21 4 -32 23 -22 471 -31 753
-15 122 7 233 13 247 12 14 0 57 0 95 -1 39 -1 90 -1 115 -1 25 1 62 0 82 -1
50 -4 88 22 88 59 0 35 -16 41 -90 31 -30 -4 -62 -4 -70 0 -19 9 -77 9 -160
-1z"/>
<path d="M2738 2299 c-24 -13 -23 -56 1 -69 11 -5 42 -10 69 -10 l50 0 -12
-35 c-7 -19 -15 -38 -19 -41 -11 -12 -8 -51 6 -62 12 -11 68 -17 125 -14 42 3
43 29 1 67 -30 26 -31 31 -26 78 4 31 2 56 -4 64 -14 17 -56 17 -62 1 -4 -9
-8 -10 -14 -2 -8 11 -68 34 -87 34 -6 0 -19 -5 -28 -11z"/>
<path d="M2252 2135 c-36 -19 -45 -31 -37 -53 9 -30 36 -35 103 -17 33 8 76
15 95 15 38 0 61 19 51 44 -3 9 -9 16 -13 16 -102 7 -180 5 -199 -5z"/>
<path d="M867 2094 c-20 -22 -37 -42 -37 -46 0 -4 -15 -14 -34 -22 -19 -8 -43
-23 -54 -34 -11 -11 -35 -28 -54 -36 -18 -9 -42 -25 -54 -34 -37 -31 -47 -139
-18 -200 8 -18 12 -41 9 -52 -12 -37 3 -60 38 -60 25 0 35 6 44 28 14 32 20
120 9 144 -5 12 0 20 20 30 15 7 35 27 44 43 23 43 73 65 150 65 94 0 110 6
110 41 0 28 -2 29 -47 29 -45 1 -47 1 -28 16 15 12 32 14 70 9 105 -16 179 1
189 41 12 48 -8 64 -78 64 -35 0 -103 3 -153 6 l-89 7 -37 -39z"/>
<path d="M2028 2116 c-27 -13 -35 -41 -18 -61 9 -10 25 -13 58 -8 56 7 87 32
78 61 -6 16 -15 20 -51 20 -25 -1 -55 -6 -67 -12z"/>
<path d="M1423 2098 c-39 -50 -11 -79 67 -70 46 6 56 11 58 28 5 33 -24 54
-72 54 -24 0 -48 -6 -53 -12z"/>
<path d="M1686 2084 c-12 -30 12 -54 54 -54 50 0 70 8 70 29 0 28 -22 41 -71
41 -33 0 -49 -5 -53 -16z"/>
<path d="M3017 2040 c-11 -44 51 -68 76 -29 17 27 1 49 -37 49 -25 0 -35 -5
-39 -20z"/>
<path d="M3157 1954 c-26 -14 -28 -20 -23 -49 l7 -33 -57 -8 c-63 -7 -127 -9
-279 -6 -136 3 -118 3 -324 -13 -101 -9 -191 -13 -201 -10 -24 8 -69 -11 -77
-31 -14 -37 57 -57 109 -30 14 8 30 10 35 6 12 -13 141 -18 516 -23 341 -5
367 -8 367 -42 0 -22 49 -28 77 -10 24 16 25 21 21 90 -3 65 -6 76 -33 103
-24 24 -98 73 -108 72 -1 -1 -15 -8 -30 -16z"/>
<path d="M955 1850 c-3 -5 -14 -10 -23 -10 -9 -1 -28 -10 -41 -21 -22 -18 -23
-22 -9 -35 10 -10 37 -16 78 -17 60 -2 65 0 79 26 15 27 15 29 -9 47 -27 21
-65 26 -75 10z"/>
<path d="M1133 1833 c-35 -18 -42 -43 -19 -62 23 -19 228 -12 243 8 19 25 15
39 -17 56 -39 20 -164 19 -207 -2z"/>
<path d="M2099 1845 c-3 -3 -25 -6 -48 -7 -52 -2 -76 -21 -61 -48 6 -10 18
-19 28 -20 49 -3 103 0 155 9 4 0 7 12 7 25 0 17 -7 26 -24 30 -13 3 -30 8
-38 11 -8 3 -16 3 -19 0z"/>
<path d="M1767 1826 c-11 -8 -24 -13 -30 -10 -19 6 -40 -13 -34 -30 4 -9 16
-16 27 -16 11 0 31 -7 45 -16 18 -12 28 -13 45 -4 11 6 28 10 38 9 49 -7 81
33 49 59 -23 19 -120 25 -140 8z"/>
<path d="M638 1566 c-21 -16 -24 -79 -5 -119 10 -22 19 -27 49 -27 32 0 39 4
44 25 3 14 3 37 -2 53 -4 15 -6 31 -5 36 3 14 -31 46 -48 46 -9 0 -24 -7 -33
-14z"/>
<path d="M1077 1522 c-15 -19 -13 -298 3 -317 6 -8 21 -17 32 -21 43 -13 80
63 41 85 -17 9 -17 10 0 28 9 11 17 25 17 31 0 7 5 12 11 12 8 0 10 17 6 53
l-5 52 39 -3 c22 -2 46 1 54 8 9 8 32 9 68 5 60 -8 67 -11 83 -40 13 -24 68
-32 91 -13 19 16 227 35 298 28 28 -3 59 -2 70 2 11 4 55 10 97 13 66 6 78 10
84 27 3 11 2 24 -4 30 -10 10 -99 12 -332 7 -113 -2 -151 0 -170 11 -35 21
-466 22 -483 2z"/>
<path d="M2540 1510 c-89 -8 -110 -16 -110 -40 0 -30 22 -38 115 -46 131 -10
128 -5 120 -189 l-7 -151 24 -10 c31 -14 58 -6 58 16 0 10 5 22 10 25 6 3 10
46 10 95 0 49 4 91 9 94 5 4 12 45 16 93 7 83 7 87 -16 104 -26 20 -86 22
-229 9z"/>
<path d="M657 1333 c-4 -3 -7 -15 -7 -25 0 -10 -6 -18 -14 -18 -23 0 -28 -59
-8 -85 15 -19 18 -37 15 -99 -3 -75 -3 -76 23 -82 20 -5 31 -2 41 11 17 24 17
27 -7 53 -18 19 -19 22 -3 30 23 13 29 150 7 159 -7 3 -11 9 -8 14 15 25 -19
62 -39 42z"/>
<path d="M2183 1302 c-37 -19 -42 -41 -14 -66 14 -13 33 -17 76 -14 l57 3 3
-43 c2 -24 11 -52 20 -62 14 -15 16 -36 12 -125 -2 -58 -2 -117 1 -131 5 -29
35 -48 63 -39 19 6 20 15 19 224 -1 119 -5 223 -9 229 -4 7 -32 17 -62 23 -98
19 -132 19 -166 1z"/>
<path d="M1431 1301 c-9 -6 -15 -29 -17 -61 -1 -30 -9 -59 -18 -69 -21 -23
-20 -38 4 -53 23 -15 18 -50 -11 -79 -21 -21 -25 -44 -9 -54 6 -4 10 -23 9
-43 -1 -46 14 -153 24 -170 11 -17 31 -15 50 6 12 13 16 41 16 129 0 66 -3
115 -10 118 -5 4 -7 16 -4 26 4 11 1 26 -5 34 -9 11 -10 19 -1 28 6 8 12 37
13 66 1 29 7 55 12 58 5 3 34 5 64 4 46 -1 53 1 48 15 -3 8 -6 20 -6 25 0 12
-41 11 -59 0 -10 -7 -23 -3 -39 10 -27 21 -40 23 -61 10z"/>
<path d="M1627 1284 c-13 -13 -7 -55 8 -60 21 -9 47 15 43 40 -3 21 -37 34
-51 20z"/>
<path d="M1079 1134 c-23 -25 -23 -26 -6 -55 9 -17 17 -43 17 -58 0 -15 5 -32
11 -38 7 -7 8 -17 3 -25 -5 -7 -10 -35 -11 -63 -1 -27 -5 -89 -8 -136 -5 -70
-3 -88 10 -99 11 -9 15 -34 15 -105 0 -80 3 -94 20 -110 20 -18 21 -18 39 1
16 17 17 33 10 174 -10 227 -21 334 -33 343 -8 5 -7 9 2 15 7 5 13 26 12 48
-1 21 2 50 5 64 4 17 0 32 -13 48 -25 29 -43 28 -73 -4z"/>
<path d="M2682 1027 c-18 -19 -22 -35 -22 -89 0 -59 3 -67 25 -82 23 -15 25
-15 45 6 11 12 20 32 20 44 0 13 5 26 10 29 18 11 11 74 -10 95 -26 26 -42 25
-68 -3z"/>
<path d="M653 968 c-12 -18 -19 -237 -10 -288 2 -14 1 -29 -3 -35 -5 -5 -5
-37 -2 -69 8 -66 28 -90 60 -70 21 14 33 99 21 152 -5 20 -9 69 -9 108 0 39
-5 75 -12 82 -8 8 -8 15 -1 24 17 22 24 67 13 88 -12 22 -45 27 -57 8z"/>
<path d="M3240 835 c-20 -21 -22 -28 -12 -50 16 -35 14 -144 -2 -174 -14 -25
-13 -38 6 -77 6 -13 6 -56 1 -115 l-8 -94 -45 5 c-25 3 -126 5 -225 5 -108 0
-183 4 -187 10 -4 6 -8 20 -8 33 0 12 -5 31 -12 42 -9 14 -9 24 -1 42 23 45
25 69 9 93 -21 32 -80 35 -96 6 -15 -29 -12 -107 4 -121 13 -10 12 -17 -5 -50
-22 -42 -45 -50 -156 -50 l-63 0 0 123 c0 107 -2 126 -18 140 -63 57 -95 -26
-77 -194 10 -86 15 -84 -269 -82 -133 0 -317 3 -409 5 -158 3 -168 4 -172 23
-6 30 -15 94 -22 148 -6 53 -29 75 -57 54 -12 -9 -18 -37 -24 -117 l-7 -105
-85 3 c-59 3 -97 9 -123 23 -38 19 -70 15 -79 -11 -2 -7 -53 -8 -163 -2 -202
12 -245 7 -258 -31 -7 -21 -5 -34 7 -52 l17 -25 172 2 c95 1 179 -2 187 -8 9
-5 178 -10 385 -12 550 -5 613 -5 815 8 102 6 225 9 275 6 55 -3 94 -1 102 6
9 7 17 7 26 0 21 -17 514 -25 552 -8 11 5 37 8 57 7 55 -3 62 17 66 194 3 97
8 153 16 157 8 5 6 16 -7 37 -13 23 -15 35 -7 56 16 41 1 154 -21 165 -29 16
-54 11 -79 -15z"/>
<path d="M665 429 c-8 -25 9 -41 40 -37 14 2 20 11 20 28 0 35 -50 42 -60 9z"/>
</g>
</svg>
